<?xml version="1.0" encoding="UTF-8"?>
<svg id="Layer_2" data-name="Layer 2" xmlns="http://www.w3.org/2000/svg" viewBox="0 0 1195.11 798.6">
  <defs>
    <style>
      .cls-1 {
        fill: #fff4d7;
        opacity: .5;
      }
    </style>
  </defs>
  <path id="office_4" data-name="office 4" class="cls-1" d="M1092.18,397.22h-137.8l-3.33,20.93c-.88,5.42-11.4,63.73-67.37,90.85-52.84,25.6-102.21,2.1-108-.78-2.48-1.3-4.96-2.61-7.43-3.91l1.24-2.54-38.05-19.17-1.37,2.54-218.71-109.63-24.26-12.33-11.87-8.15-13.27,25.43-18.49-9.88-45.72,91.79,124.43,63,2.87-5.35,19.7,9.65-2.67,5.28,142.11,71.54,2.74-5.35,20.28,9.46-2.15,5.61,146.94,60.75,2.25-5.48,20.25,8.61-2.15,5.87,130.57,53.93,2.35-5.45,28.14,11.61,3.13-17.18,2.9.68,21.39-136.76-17.87-2.87,2.09-12,18,2.93,14.45-92.51-18.05-2.89,2.01-11.89,17.8,2.89,12.95-79.26Z"/>
  <polygon id="Office_3" data-name="Office 3" class="cls-1" points="999.9 335.49 999.9 206.52 971.2 206.52 971.2 220.61 801.5 220.61 801.5 50.39 824.2 50.39 824.2 46.87 955.09 46.87 955.09 75.24 973.09 75.24 973.09 47.07 1125.5 47.07 1125.5 125.33 1134.9 126.89 1119.63 221.39 1101.83 218.65 1099.68 230.78 1117.48 233.72 1103.2 326.65 1085.4 322.93 1083.24 335.07 999.9 335.49"/>
  <polygon id="Office_2" data-name="Office 2" class="cls-1" points="461.59 50.91 461.59 76.22 445.94 76.22 445.94 194.13 478.81 194.13 478.81 219.7 659.59 219.7 659.59 209 688.55 209 688.55 219.43 799.42 219.43 799.42 75.96 784.03 75.96 784.03 50.65 762.63 50.65 762.63 47 631.94 47 631.94 75.7 613.68 75.7 613.68 47 461.59 47 461.59 50.91"/>
  <polygon id="Office_1" data-name="Office 1" class="cls-1" points="443.27 47.07 290.66 47.07 290.66 75.83 272.07 75.83 272.07 46.87 75.83 46.87 75.83 58.02 63.5 58.02 63.5 74.26 48.05 74.26 48.05 261.89 63.31 261.89 63.31 281.46 76.22 287.72 70.94 298.48 179.13 353.26 180.9 350.52 198.31 359.91 200.27 356.39 219.83 366.76 218.46 370.09 235.87 378.11 234.7 381.24 342.11 434.85 343.38 432.4 360.5 441.01 362.36 438.27 382.22 448.25 381.05 450.79 396.02 458.42 441.6 368.72 460.78 377.91 473.2 353.85 440.72 287 440.72 274.09 443.98 274.09 443.98 223.48 443.27 47.07"/>
</svg>